<?xml version="1.0" encoding="UTF-8"?>
<!DOCTYPE svg PUBLIC "-//W3C//DTD SVG 1.1//EN" "http://www.w3.org/Graphics/SVG/1.1/DTD/svg11.dtd">
<!-- Creator: CorelDRAW 2019 (64 Bit) -->
<svg xmlns="http://www.w3.org/2000/svg" xml:space="preserve" width="110mm" height="50mm" version="1.1" style="shape-rendering:geometricPrecision; text-rendering:geometricPrecision; image-rendering:optimizeQuality; fill-rule:evenodd; clip-rule:evenodd"
viewBox="0 0 11000 5000"
 xmlns:xlink="http://www.w3.org/1999/xlink">
 <defs>
  <style type="text/css">
   <![CDATA[
    .fil0 {fill:#FEFEFE}
   ]]>
  </style>
 </defs>
 <g id="Camada_x0020_1">
  <metadata id="CorelCorpID_0Corel-Layer"/>
  <g id="_2652302083968">
   <path class="fil0" d="M7221.57 2315.13l15.83 -554.08c79.16,0 364.12,0 427.44,15.83 110.82,15.83 158.31,126.65 158.31,269.13 -15.83,142.48 -63.32,237.46 -174.14,253.29 -94.99,31.66 -316.62,15.83 -427.44,15.83zm31.67 -1076.51l15.82 -506.59c47.5,-15.84 332.46,-15.84 379.95,0 110.82,31.66 158.31,126.65 158.31,253.29 -15.83,253.3 -189.97,253.3 -348.28,253.3 -63.32,0 -142.48,0 -205.8,0zm-554.09 -1029.02c0,47.5 15.83,269.13 0,348.28 0,538.26 -15.84,1108.18 -31.67,1646.44 -15.83,221.63 -31.66,427.43 -47.49,649.07 300.79,0 997.36,15.83 1282.31,-31.66 126.66,-15.83 237.47,-63.33 300.8,-126.65 79.15,-79.16 126.65,-174.14 158.31,-284.96 47.49,-126.65 63.32,-269.13 47.49,-411.61 -15.83,-47.49 -15.83,-94.98 -31.66,-142.48 -47.49,-189.97 -158.32,-316.62 -364.12,-364.11 47.5,-31.66 142.48,-31.66 253.3,-174.14 126.65,-189.98 158.31,-490.77 94.99,-712.4 -110.82,-443.27 -443.27,-411.61 -854.88,-395.78 -126.65,0 -253.29,0 -395.77,0 -126.66,15.83 -269.13,0 -411.61,0z"/>
   <path class="fil0" d="M8773.01 209.6c0,712.4 -15.82,1598.94 -79.15,2311.34 0,110.81 -15.83,221.63 -15.83,332.45l459.1 0c31.66,0 110.82,0 142.48,0 0,-15.83 0,-474.93 0,-538.26 15.83,-348.28 15.83,-680.73 31.66,-1029.02 0,-174.14 0,-364.11 15.83,-522.42 94.99,-15.83 316.63,-15.83 411.61,15.83 253.3,63.33 205.8,443.27 31.66,554.09 -47.49,31.66 -110.82,47.49 -158.31,47.49 -94.99,15.83 -142.48,0 -205.8,-15.83 0,63.32 31.66,126.65 47.49,189.97 79.16,269.13 174.14,649.08 237.47,918.2 15.83,63.33 31.66,126.65 31.66,189.98 15.83,31.66 31.66,158.31 47.49,189.97 47.5,0 126.65,0 158.31,0l490.76 0c0,-47.49 -31.66,-110.82 -47.49,-158.31 -31.66,-110.82 -316.62,-934.03 -332.45,-1013.19 79.15,-31.66 221.64,-126.65 269.13,-189.97 253.29,-284.96 237.47,-839.05 31.66,-1076.51l-47.5 -63.33c-15.83,-15.83 -47.49,-31.66 -63.32,-47.49 -47.49,-31.66 -110.82,-47.49 -158.31,-63.33 -253.29,-79.15 -775.72,-15.83 -1076.51,-15.83 -79.16,-15.83 -158.31,-15.83 -221.64,-15.83z"/>
   <path class="fil0" d="M588.36 1507.75c0,31.66 -15.83,94.98 -15.83,142.48 -94.99,506.59 -31.67,1044.85 158.31,1519.78 94.98,269.13 284.96,585.75 474.93,791.55 63.32,63.33 110.81,142.48 189.98,205.81 15.82,15.83 31.65,15.83 31.65,31.66 31.67,31.66 63.33,47.49 94.99,79.16 221.64,174.14 474.93,332.45 807.38,443.27 506.6,174.14 1076.52,174.14 1583.11,-15.83 284.96,-94.99 569.92,-253.3 791.55,-443.28 63.33,-63.32 158.31,-126.64 205.81,-189.97l79.15 -79.15c15.84,-15.83 31.67,-31.67 31.67,-47.5l79.15 -94.98c142.48,-158.31 269.13,-379.95 348.28,-585.75 15.84,-31.66 47.5,-94.99 47.5,-126.65l-205.81 -79.16c-15.83,0 -47.49,94.99 -63.32,126.65 -79.15,158.31 -205.8,395.78 -332.45,538.26 -15.83,15.83 -15.83,31.66 -31.67,47.49 -79.15,94.99 -237.46,237.47 -316.62,300.79 -189.97,158.31 -411.6,300.79 -664.9,379.95 -823.22,316.62 -1678.09,94.98 -2248.01,-395.78 -63.32,-63.32 -158.31,-142.48 -221.64,-205.8l-79.15 -94.99c-15.84,-15.83 -15.84,-31.66 -31.66,-47.49 -31.67,-31.66 -47.5,-79.16 -79.16,-110.82 -47.49,-63.33 -94.98,-142.48 -126.65,-221.64 -300.79,-506.59 -395.77,-1139.83 -284.95,-1757.24 15.82,-63.33 0,-15.84 110.81,-63.33 205.81,-126.65 205.81,-459.1 -31.66,-554.08 -94.99,-47.5 -189.97,-31.67 -269.13,31.66 -110.82,79.15 -158.31,237.46 -94.98,379.94 15.82,31.66 47.49,79.16 63.32,94.99z"/>
   <path class="fil0" d="M3232.15 2853.39c221.63,0 427.43,0 649.07,0 0,-94.99 0,-1029.02 15.83,-1044.85 15.83,-15.83 664.9,0 744.06,0l0 -427.44c15.83,-47.49 15.83,-94.99 15.83,-142.48 -189.97,0 -569.92,15.83 -744.06,0l15.83 -443.27c94.99,-15.83 775.72,0 886.54,0 0,-94.99 0,-189.97 0,-284.96 0,-47.49 15.84,-110.82 15.84,-158.31 0,-47.49 0,-94.98 0,-142.48l-1124.01 0c-79.16,0 -332.46,0 -379.95,0 0,110.82 0,237.47 0,348.28 0,94.99 0,221.64 0,316.63 -15.83,237.46 -15.83,459.1 -15.83,680.73 -15.83,316.62 -31.66,649.08 -47.49,965.7 -15.84,110.81 -15.84,221.63 -31.66,332.45z"/>
   <path class="fil0" d="M4957.73 2156.82c0,31.67 15.83,110.82 15.83,158.31 0,47.5 0,110.82 15.83,158.31 0,110.82 0,221.64 15.84,332.46 31.66,15.83 205.8,47.49 237.46,63.32 269.13,47.49 569.92,63.33 791.56,-94.98 269.12,-189.98 379.94,-601.59 253.29,-918.21 -174.14,-427.44 -696.57,-696.56 -633.25,-965.69 31.67,-63.33 94.99,-126.65 174.15,-142.48 94.99,-15.83 205.81,0 284.96,31.66 31.66,0 79.16,15.83 110.81,31.66 31.67,15.83 79.16,47.5 110.82,63.33 -15.83,-158.32 -15.83,-316.63 -31.66,-474.94 0,-47.49 0,-110.81 0,-158.31 -158.31,-47.49 -379.94,-79.15 -554.09,-79.15 -189.97,0 -348.28,63.32 -474.93,158.31 -253.29,237.46 -300.79,664.9 -142.48,965.69 79.16,142.48 189.98,253.3 284.96,364.12 47.5,63.32 94.99,110.82 142.48,174.14 31.66,31.66 47.49,63.33 79.16,94.99 174.14,205.8 94.98,427.44 -221.64,395.77 -126.65,0 -237.47,-47.49 -348.28,-110.81l-110.82 -47.5z"/>
   <path class="fil0" d="M1696.53 874.51c47.5,0 79.16,15.83 142.48,15.83 31.66,-15.83 79.16,-31.66 110.82,-47.49 221.64,-142.49 174.14,-506.6 -94.98,-554.09 -174.15,-47.5 -332.46,94.98 -348.29,269.12 0,31.67 0,47.5 15.83,79.16 0,63.32 31.66,31.66 -31.66,94.99 -47.49,63.32 -110.82,174.14 -158.31,237.46 -348.28,585.75 -427.44,1345.64 -126.65,2058.04 221.63,538.26 680.74,1013.19 1282.32,1203.16 348.28,110.82 728.23,126.65 1076.5,47.5 237.47,-63.33 459.11,-158.32 649.08,-284.96 31.66,-15.83 63.33,-31.67 94.99,-63.33l79.15 -63.32c0,0 -126.65,-189.97 -142.48,-205.8 -15.83,15.83 -15.83,31.66 -31.66,31.66 -364.11,284.96 -823.22,427.43 -1282.32,379.94 -348.27,-31.66 -664.9,-174.14 -934.03,-379.94 -15.83,-15.83 -31.66,-31.66 -63.32,-47.5 -15.83,-15.83 -31.66,-31.66 -47.49,-47.49 -31.66,-15.83 -47.5,-47.49 -63.33,-63.33l-47.49 -47.49c-253.3,-284.96 -490.77,-712.39 -522.43,-1266.48 -15.83,-427.44 110.82,-886.54 348.29,-1218.99l94.98 -126.65z"/>
   <path class="fil0" d="M3327.13 3787.42l-31.66 -237.46c-31.66,0 -94.99,15.83 -142.48,15.83 -142.48,0 -284.96,-15.83 -411.61,-63.33 -459.1,-126.65 -807.38,-506.59 -949.86,-981.52 -126.65,-490.77 0,-981.53 284.96,-1329.81 15.83,-15.83 31.66,-31.66 47.49,-47.49 15.83,-15.84 47.5,-47.5 79.16,-79.16 79.15,-63.32 79.15,-79.16 174.14,-142.48 31.66,-15.83 158.31,-94.99 205.81,-110.82 15.83,15.83 47.49,47.5 79.15,47.5 15.83,15.83 47.49,31.66 79.15,31.66 79.16,15.83 158.32,-15.83 205.81,-47.49 79.15,-63.33 158.31,-205.81 110.81,-364.12 -110.81,-300.79 -522.42,-221.63 -554.08,63.32 -15.83,31.67 0,31.67 -31.67,47.5 -31.66,15.83 -94.98,47.49 -126.64,63.32 -47.5,31.66 -94.99,63.32 -142.48,94.99 -31.66,15.83 -47.5,31.66 -79.16,63.32 -15.83,15.83 -47.49,31.67 -63.32,47.5 -126.65,110.81 -253.3,284.96 -332.46,427.43 -221.63,395.78 -269.12,839.05 -158.3,1282.32 47.49,221.64 158.3,427.44 284.96,601.58l110.81 142.48c142.48,142.48 332.45,284.96 522.43,364.12 237.46,110.81 554.08,174.14 839.04,110.81z"/>
  </g>
 </g>
</svg>
